<?xml version="1.0" encoding="UTF-8" standalone="no"?>
<svg
   enable-background="new 0 0 256 256"
   height="256px"
   id="Layer_1"
   version="1.1"
   viewBox="0 0 256 256"
   width="256px"
   xml:space="preserve"
   sodipodi:docname="right-arrow.svg"
   inkscape:version="1.4.3 (0d15f75, 2025-12-25)"
   xmlns:inkscape="http://www.inkscape.org/namespaces/inkscape"
   xmlns:sodipodi="http://sodipodi.sourceforge.net/DTD/sodipodi-0.dtd"
   xmlns="http://www.w3.org/2000/svg"
   xmlns:svg="http://www.w3.org/2000/svg"><defs
     id="defs1" /><sodipodi:namedview
     id="namedview1"
     pagecolor="#ffffff"
     bordercolor="#000000"
     borderopacity="0.25"
     inkscape:showpageshadow="2"
     inkscape:pageopacity="0.0"
     inkscape:pagecheckerboard="0"
     inkscape:deskcolor="#d1d1d1"
     inkscape:zoom="0.1015625"
     inkscape:cx="123.07692"
     inkscape:cy="128"
     inkscape:window-width="944"
     inkscape:window-height="245"
     inkscape:window-x="0"
     inkscape:window-y="29"
     inkscape:window-maximized="0"
     inkscape:current-layer="Layer_1" /><path
     d="m 164.525,33.861 89.6,89.6 c 2.5,2.5 2.5,6.551 0,9.051 l -89.6,89.6 c -2.5,2.5 -6.551,2.5 -9.051,0 -2.5,-2.5 -2.5,-6.742 0,-9.242 L 234.15,134 H 6.399 c -3.535,0 -6.4,-2.466 -6.4,-6 0,-3.534 2.865,-6 6.4,-6 H 234.15 L 155.474,43.119 c -1.25,-1.25 -1.875,-2.993 -1.875,-4.629 0,-1.636 0.625,-3.326 1.875,-4.576 2.501,-2.501 6.551,-2.553 9.051,-0.053 z"
     id="path1" fill="#0645ad" /></svg>
